# AST/ASF file generated using VICON BodyLanguage
# -----------------------------------------------
:version 1.10
:name VICON
:units
  mass 1.0
  length 0.45
  angle deg
:documentation
   .ast/.asf automatically generated from VICON data using
   VICON BodyBuilder and BodyLanguage model FoxedUp or BRILLIANT.MOD
:root
   order TX TY TZ RX RY RZ
   axis XYZ
   position 0 0 0  
   orientation 0 0 0 
:bonedata
  begin
     id 1 
     name lhipjoint
     direction 0.588788 -0.725889 0.355548 
     length 2.37778 
     axis 0 0 0  XYZ
  end
  begin
     id 2 
     name lfemur
     direction 0.34202 -0.939693 0  
     length 6.86393  
     axis 0 0 20  XYZ
    dof rx ry rz
    limits (-160.0 20.0)
           (-70.0 70.0)
           (-60.0 70.0)
  end
  begin
     id 3 
     name ltibia
     direction 0.34202 -0.939693 0   
     length 7.32851   
     axis 0 0 20   XYZ
    dof rx
    limits (-10.0 170.0)
  end
  begin
     id 4 
     name lfoot
     direction 0.0626533 -0.172138 0.983078   
     length 1.98929   
     axis -90 7.62852e-016 20   XYZ
    dof rx rz
    limits (-45.0 90.0)
           (-70.0 20.0)
  end
  begin
     id 5 
     name ltoes
     direction 1.53647e-011 -4.21734e-011 1   
     length 1.00479   
     axis -90 7.62852e-016 20   XYZ
    dof rx
    limits (-90.0 20.0)
  end
  begin
     id 6 
     name rhipjoint
     direction -0.59141 -0.724168 0.354705   
     length 2.38343  
     axis 0 0 0  XYZ 
  end
  begin
     id 7 
     name rfemur
     direction -0.34202 -0.939693 0   
     length 6.95589   
     axis 0 0 -20   XYZ
    dof rx ry rz
    limits (-160.0 20.0)
           (-70.0 70.0)
           (-70.0 60.0)
  end
  begin
     id 8 
     name rtibia
     direction -0.34202 -0.939693 0   
     length 7.32327   
     axis 0 0 -20   XYZ
    dof rx
    limits (-10.0 170.0)
 end
 begin
     id 9 
     name rfoot
     direction -0.0660461 -0.18146 0.981178   
     length 1.85272  
     axis -90 -7.62852e-016 -20   XYZ
    dof rx rz
    limits (-45.0 90.0)
           (-20.0 70.0)
  end
  begin
     id 10 
     name rtoes
     direction -1.53586e-011 -4.21988e-011 1   
     length 0.93746   
     axis -90 -7.62852e-016 -20   XYZ
    dof rx
    limits (-90.0 20.0)
  end
  begin
     id 11 
     name lowerback
     direction -0.0107982 0.991059 0.13299   
     length 1.98691   
     axis 0 0 0   XYZ
    dof rx ry rz
    limits (-20.0 45.0)
           (-30.0 30.0)
           (-30.0 30.0)
  end
  begin
     id 12 
     name upperback
     direction 0.0076296 0.999916 0.0104576   
     length 1.99501   
     axis 0 0 0   XYZ
    dof rx ry rz
    limits (-20.0 45.0)
           (-30.0 30.0)
           (-30.0 30.0)
  end
  begin
     id 13 
     name thorax
     direction 0.01176 0.998615 -0.0512909   
     length 2.03144   
     axis 0 0 0   XYZ
    dof rx ry rz
    limits (-20.0 45.0)
           (-30.0 30.0)
           (-30.0 30.0)
  end
  begin
     id 14 
     name lowerneck
     direction -0.0171909 0.999644 0.0204011   
     length 1.71818   
     axis 0 0 0   XYZ
    dof rx ry rz
    limits (-20.0 45.0)
           (-30.0 30.0)
           (-30.0 30.0)
  end
  begin
     id 15 
     name upperneck
     direction 0.0250902 0.997482 -0.0663316   
     length 1.66199   
     axis 0 0 0   XYZ
    dof rx ry rz
    limits (-20.0 45.0)
           (-30.0 30.0)
           (-30.0 30.0)
  end
  begin
     id 16
     name head
     direction 0.00881535 0.99956 -0.0283365  
     length 1.81545  
     axis 0 0 0   XYZ
    dof rx ry rz
    limits (-20.0 45.0)
           (-30.0 30.0)
           (-30.0 30.0)
  end
  begin
     id 17 
     name lclavicle
     direction 0.840411 0.486876 -0.238035  
     length 3.30409  
     axis 0 0 0   XYZ
    dof ry rz
    limits (-20.0 10.0)
           (0.0 20.0)
  end
  begin
     id 18 
     name lhumerus
     direction 1 -4.48977e-011 -5.16239e-027   
     length 4.62672   
     axis 180 -30 -90   XYZ
    dof rx ry rz
    limits (-60.0 90.0)
           (-90.0 90.0)
           (-90.0 90.0)
  end
  begin
     id 19
     name lradius
     direction 1 -4.48977e-011 -8.71171e-027   
     length 3.11018   
     axis 180 -30 -90   XYZ
    dof rx
    limits (-10.0 170.0)
  end
  begin
     id 20
     name lwrist
     direction 1 -4.48912e-011 -1.03764e-026   
     length 1.55509   
     axis 9.09556e-015 90 90   XYZ
    dof ry
    limits (-180.0 0.0)
 end
  begin
     id 21 
     name lhand
     direction 1 -4.49072e-011 -2.07528e-026   
     length 0.743834   
     axis 1.3242e-014 90 90   XYZ
    dof rx rz
    limits (-90.0 90.0)
           (-45.0 45.0)
  end
  begin
     id 22 
     name lfingers
     direction 1 -4.48909e-011 -4.15056e-026   
     length 0.599698   
     axis 2.64841e-014 90 90   XYZ
    dof rx
    limits (0.0 90.0)
  end
  begin
     id 23
     name lthumb
     direction 0.707107 -6.35013e-011 0.707107   
     length 0.86105   
     axis -90 45 2.85299e-015   XYZ
    dof rx rz
    limits (-45.0 45.0)
           (-45.0 45.0)
  end
  begin
     id 24 
     name rclavicle
     direction -0.835208 0.500237 -0.228452   
     length 3.2716  
     axis 0 0 0   XYZ 
    dof ry rz
    limits (-10.0 20.0)
           (-20.0 0.0)
  end
  begin
     id 25 
     name rhumerus
     direction -1 -4.48978e-011 -5.1953e-028  
     length 4.55919   
     axis 180 30 90   XYZ
    dof rx ry rz
    limits (-90.0 60.0)
           (-90.0 90.0)
           (-90.0 90.0)
  end
  begin
     id 26 
     name rradius
     direction -1 -4.48961e-011 -5.99546e-027   
     length 3.22748   
     axis 180 30 90   XYZ
    dof rx
    limits (-10.0 170.0)
  end
  begin
     id 27 
     name rwrist
     direction -1 -4.48986e-011 -1.03764e-026   
     length 1.61374   
     axis 9.09556e-015 -90 -90   XYZ
    dof ry
    limits (-180.0 0.0)
  end
  begin
     id 28
     name rhand
     direction -1 -4.4899e-011 -2.07528e-026   
     length 0.700882   
     axis 1.3242e-014 -90 -90   XYZ
    dof rx rz
    limits (-90.0 90.0)
           (-45.0 45.0)
  end
  begin
     id 29
     name rfingers
     direction -1 -4.48991e-011 -4.15056e-026   
     length 0.565069   
     axis 2.64841e-014 -90 -90   XYZ
    dof rx
    limits (0.0 90.0)
  end
  begin
     id 30
     name rthumb
     direction -0.707107 -6.34804e-011 0.707107   
     length 0.811329   
     axis -90 -45 -2.85299e-015   XYZ
    dof rx rz
    limits (-45.0 45.0)
           (-45.0 45.0)
  end
:hierarchy
  begin
    root lhipjoint rhipjoint lowerback
    lhipjoint lfemur
    lfemur ltibia
    ltibia lfoot
    lfoot ltoes
    rhipjoint rfemur
    rfemur rtibia
    rtibia rfoot
    rfoot rtoes
    lowerback upperback
    upperback thorax
    thorax lowerneck lclavicle rclavicle
    lowerneck upperneck
    upperneck head
    lclavicle lhumerus
    lhumerus lradius
    lradius lwrist
    lwrist lhand lthumb
    lhand lfingers
    rclavicle rhumerus
    rhumerus rradius
    rradius rwrist
    rwrist rhand rthumb
    rhand rfingers
  end

#!OML:ASF F:\VICON\USERDATA\INSTALL\SteveWalk\SteveWalk.ASF
:FULLY-SPECIFIED
:DEGREES
95
root 0.234443 16.0367 -24.5466 16.9522 6.14182 -1.06045
lowerback -14.7502 -2.5072 2.8978
upperback -4.93333 -3.82887 2.75786
thorax 3.03809 -1.89403 0.60386
lowerneck -4.71843 -1.40328 0.640236
upperneck 8.52677 -1.7222 -2.43795
head 3.56423 -0.934636 -0.992176
rclavicle 4.04278e-014 -7.95139e-016
rhumerus -87.1538 -40.7208 -6.3971
rradius 11.3341
rwrist 55.4545
rhand -13.5366 -34.1914
rfingers 7.12502
rthumb 12.5759 -63.7928
lclavicle 4.04278e-014 -7.95139e-016
lhumerus -27.8889 -2.35739 84.9725
lradius 56.8352
lwrist 11.7282
lhand -25.4737 -19.2214
lfingers 7.12502
lthumb 1.05405 10.7558
rfemur -49.4946 -0.622341 24.1868
rtibia 39.2691
rfoot -8.2516 2.7463
rtoes -12.0077
lfemur -11.4119 -0.858087 -17.5735
ltibia 53.5885
lfoot 22.0638 -16.8629
ltoes -14.1797
96
root 0.239224 16.0574 -24.3235 16.9982 5.98113 -1.18916
lowerback -14.7084 -2.36076 2.98106
upperback -4.92314 -3.6484 2.81572
thorax 3.02611 -1.80458 0.649632
lowerneck -4.88283 -1.41445 0.508148
upperneck 8.68559 -1.74133 -2.2393
head 3.65373 -0.941451 -0.9086
rclavicle 3.16565e-014 -2.8625e-014
rhumerus -85.1038 -41.2595 -9.31889
rradius 11.4414
rwrist 53.192
rhand -13.5794 -34.2158
rfingers 7.12502
rthumb 12.5346 -63.8198
lclavicle 3.16565e-014 -2.8625e-014
lhumerus -28.6344 -2.36145 85.4407
lradius 56.2849
lwrist 11.7112
lhand -25.3965 -19.762
lfingers 7.12502
lthumb 1.12858 10.2148
rfemur -48.8753 -0.646662 24.5255
rtibia 39.6923
rfoot -9.29543 2.69343
rtoes -12.8702
lfemur -13.2324 -0.588562 -17.466
ltibia 56.5151
lfoot 22.3234 -15.783
ltoes -18.7665
97
root 0.240872 16.0803 -24.1026 16.9683 5.94244 -1.21319
lowerback -14.5531 -2.25739 2.93033
upperback -4.93656 -3.49804 2.84345
thorax 2.93456 -1.73102 0.738996
lowerneck -4.89122 -1.45128 0.427299
upperneck 8.75554 -1.79465 -2.10907
head 3.68056 -0.965216 -0.854787
rclavicle -4.2279e-014 1.27222e-014
rhumerus -83.2123 -41.7634 -12.0174
rradius 11.5846
rwrist 51.3101
rhand -13.6409 -34.2865
rfingers 7.12502
rthumb 12.4753 -63.8941
lclavicle -4.2279e-014 1.27222e-014
lhumerus -29.2291 -2.25788 85.8837
lradius 55.4999
lwrist 11.4008
lhand -25.0118 -19.8718
lfingers 7.12502
lthumb 1.50017 10.1027
rfemur -48.1327 -0.697014 24.6862
rtibia 40.0197
rfoot -10.2962 2.5678
rtoes -12.7845
lfemur -14.8915 -0.266382 -17.4084
ltibia 59.1926
lfoot 21.2667 -15.0045
ltoes -19.7741
98
root 0.241777 16.1066 -23.8823 16.8405 6.09159 -1.45289
lowerback -14.3271 -2.14533 3.09737
upperback -4.95914 -3.36418 2.92952
thorax 2.7854 -1.66669 0.767257
lowerneck -4.97028 -1.50721 0.661489
upperneck 8.89929 -1.86429 -2.3636
head 3.74189 -1.00358 -0.986703
rclavicle -9.52924e-015 2.38542e-015
rhumerus -80.7781 -42.0874 -15.4918
rradius 11.7532
rwrist 48.951
rhand -13.5505 -34.4203
rfingers 7.12502
rthumb 12.5625 -64.0226
lclavicle -9.52924e-015 2.38542e-015
lhumerus -29.7143 -2.40589 86.3636
lradius 54.3989
lwrist 11.0372
lhand -24.5527 -19.9896
lfingers 7.12502
lthumb 1.94359 9.98126
rfemur -47.1874 -0.751444 25.0779
rtibia 40.2444
rfoot -11.3216 2.20986
rtoes -12.998
lfemur -16.4148 -0.0432498 -17.0592
ltibia 61.632
lfoot 19.1451 -13.8297
ltoes -18.2146
99
root 0.240467 16.126 -23.6675 16.7166 6.30331 -1.72685
lowerback -14.1363 -2.06671 3.24575
upperback -4.9276 -3.27651 3.05225
thorax 2.71512 -1.62373 0.833255
lowerneck -5.11772 -1.53296 0.764589
upperneck 9.01302 -1.89239 -2.51084
head 3.80871 -1.02143 -1.05909
rclavicle 3.25386e-014 1.90833e-014
rhumerus -77.9616 -42.3862 -19.3032
rradius 11.9721
rwrist 46.6303
rhand -13.285 -34.6733
rfingers 7.12502
rthumb 12.8184 -64.2598
lclavicle 3.25386e-014 1.90833e-014
lhumerus -30.0773 -2.4461 86.8659
lradius 53.1505
lwrist 10.5482
lhand -24.0828 -20.2586
lfingers 7.12502
lthumb 2.39742 9.70764
rfemur -46.2134 -0.81643 25.5071
rtibia 40.3555
rfoot -12.2985 1.82252
rtoes -12.8022
lfemur -17.9696 0.143891 -16.6439
ltibia 63.9053
lfoot 15.4729 -12.4385
ltoes -18.5784
100
root 0.24017 16.1542 -23.4554 16.6947 6.45829 -1.89134
lowerback -14.0696 -1.99978 3.25981
upperback -4.86469 -3.1924 3.13736
thorax 2.74995 -1.58058 0.928681
lowerneck -5.18047 -1.57119 0.587535
upperneck 8.96929 -1.94833 -2.29995
head 3.80753 -1.04591 -0.960623
rclavicle -3.16316e-014 3.65764e-014
rhumerus -74.9257 -42.6659 -23.3258
rradius 12.2545
rwrist 44.4004
rhand -13.1486 -35.0314
rfingers 7.12502
rthumb 12.9499 -64.6096
lclavicle -3.16316e-014 3.65764e-014
lhumerus -30.3313 -2.42168 87.3293
lradius 51.8418
lwrist 9.87942
lhand -23.8666 -20.309
lfingers 7.12502
lthumb 2.60618 9.65484
rfemur -45.2894 -0.886105 25.7917
rtibia 40.3605
rfoot -13.1573 1.63669
rtoes -11.8215
lfemur -19.7256 0.352821 -16.3991
ltibia 66.0438
lfoot 11.5797 -11.3026
ltoes -19.2457
101
root 0.242839 16.1873 -23.242 16.7388 6.45781 -2.05367
lowerback -14.1021 -1.86748 3.26946
upperback -4.81019 -3.02598 3.21402
thorax 2.82919 -1.49604 1.0276
lowerneck -5.19507 -1.67635 0.556294
upperneck 8.90293 -2.08619 -2.31582
head 3.78474 -1.11564 -0.966186
rclavicle 5.16219e-014 -1.82882e-014
rhumerus -71.6109 -42.7009 -27.6206
rradius 12.5863
rwrist 41.7974
rhand -13.1176 -35.226
rfingers 7.12502
rthumb 12.9798 -64.8022
lclavicle 5.16219e-014 -1.82882e-014
lhumerus -30.5555 -2.46115 87.7737
lradius 50.3923
lwrist 9.18081
lhand -23.6873 -20.5703
lfingers 7.12502
lthumb 2.77938 9.3913
rfemur -44.3908 -1.07918 26.1546
rtibia 40.2551
rfoot -13.9564 1.47095
rtoes -12.7035
lfemur -21.6394 0.753233 -16.2538
ltibia 68.0497
lfoot 8.72751 -10.7213
ltoes -18.8942
102
root 0.248943 16.22 -23.0285 16.8449 6.34579 -1.95626
lowerback -14.2107 -1.76135 3.01874
upperback -4.77099 -2.85976 3.22728
thorax 2.94287 -1.41097 1.20446
lowerneck -5.2684 -1.70833 0.685841
upperneck 8.92659 -2.12223 -2.50868
head 3.80412 -1.13791 -1.05642
rclavicle -2.59911e-014 3.18055e-015
rhumerus -68.2986 -42.4691 -31.8406
rradius 12.9683
rwrist 39.2295
rhand -13.2685 -34.903
rfingers 7.12502
rthumb 12.8343 -64.4885
lclavicle -2.59911e-014 3.18055e-015
lhumerus -30.7795 -2.36895 88.1946
lradius 48.7131
lwrist 8.27627
lhand -23.4887 -21.0463
lfingers 7.12502
lthumb 2.97117 8.91275
rfemur -43.5326 -1.37988 26.2614
rtibia 40.0725
rfoot -14.8211 1.32567
rtoes -14.7854
lfemur -23.6495 1.09782 -16.4776
ltibia 69.8137
lfoot 7.86537 -10.434
ltoes -14.3745
103
root 0.249096 16.2573 -22.8203 16.9123 6.30406 -1.93158
lowerback -14.2133 -1.70219 2.80249
upperback -4.78146 -2.75311 3.26348
thorax 2.94552 -1.35721 1.38123
lowerneck -5.31947 -1.68012 0.76307
upperneck 9.08285 -2.08032 -2.59732
head 3.86891 -1.11921 -1.10093
rclavicle 4.4975e-015 7.95139e-015
rhumerus -64.1758 -41.3992 -37.3199
rradius 13.4917
rwrist 35.4837
rhand -13.6678 -34.5497
rfingers 7.12502
rthumb 12.4494 -64.1589
lclavicle 4.4975e-015 7.95139e-015
lhumerus -31.142 -2.08273 88.4788
lradius 47.0067
lwrist 7.06569
lhand -22.942 -21.4098
lfingers 7.12502
lthumb 3.49915 8.54121
rfemur -42.5893 -1.46373 26.3388
rtibia 39.8304
rfoot -15.5362 1.21531
rtoes -15.0249
lfemur -25.6172 1.41566 -16.5566
ltibia 71.2802
lfoot 8.06794 -10.1555
ltoes -7.41493
104
root 0.248516 16.2985 -22.6127 17.0871 6.10696 -1.67739
lowerback -14.2838 -1.65258 2.33907
upperback -4.83111 -2.62353 3.21711
thorax 2.9498 -1.29184 1.61318
lowerneck -5.52921 -1.70349 0.595701
upperneck 9.51057 -2.10395 -2.44756
head 4.06502 -1.13245 -1.03269
rclavicle -8.4732e-015 4.77083e-015
rhumerus -60.0366 -39.9028 -42.893
rradius 14.1295
rwrist 31.4653
rhand -14.2051 -34.4697
rfingers 7.12502
rthumb 11.9313 -64.1097
lclavicle -8.4732e-015 4.77083e-015
lhumerus -31.6227 -1.75217 88.6695
lradius 45.4143
lwrist 5.83753
lhand -22.0559 -21.4292
lfingers 7.12502
lthumb 4.35481 8.50601
rfemur -41.7685 -1.33247 26.0671
rtibia 39.5929
rfoot -16.1435 1.26417
rtoes -13.1477
lfemur -27.5149 1.72597 -16.9433
ltibia 72.3748
lfoot 7.66206 -9.48354
ltoes -3.01633
105
root 0.251352 16.3279 -22.4064 17.2567 5.74193 -1.4195
lowerback -14.3514 -1.54421 1.90518
upperback -4.88193 -2.41877 3.14289
thorax 2.94516 -1.18927 1.8126
lowerneck -5.58141 -1.71827 0.269971
upperneck 9.74498 -2.11601 -2.17957
head 4.16479 -1.13879 -0.890151
rclavicle 2.24875e-015 -6.36111e-015
rhumerus -56.1829 -38.0775 -48.1666
rradius 14.92
rwrist 27.439
rhand -14.7344 -34.8267
rfingers 7.12502
rthumb 11.4209 -64.4957
lclavicle 2.24875e-015 -6.36111e-015
lhumerus -32.2025 -1.27007 88.8189
lradius 43.8775
lwrist 4.554
lhand -20.9418 -21.2009
lfingers 7.12502
lthumb 5.4305 8.7095
rfemur -40.9768 -1.20242 25.7988
rtibia 39.3573
rfoot -16.7865 1.23004
rtoes -12.8855
lfemur -29.3207 2.10829 -17.425
ltibia 73.2182
lfoot 6.31021 -8.30102
ltoes -1.96927
106
root 0.256545 16.3506 -22.1999 17.3816 5.23584 -1.30242
lowerback -14.4278 -1.35752 1.68799
upperback -4.94093 -2.13882 3.03601
thorax 2.92257 -1.05011 1.86873
lowerneck -5.53502 -1.67144 0.181665
upperneck 10.0123 -2.05589 -2.03364
head 4.25472 -1.10619 -0.825488
rclavicle 2.2239e-015 -1.98785e-014
rhumerus -52.8787 -36.0051 -52.97
rradius 15.881
rwrist 23.617
rhand -15.3778 -35.3258
rfingers 7.12502
rthumb 10.8003 -65.0281
lclavicle 2.2239e-015 -1.98785e-014
lhumerus -32.8788 -0.894872 88.8827
lradius 42.2848
lwrist 3.32831
lhand -20.5027 -20.9759
lfingers 7.12502
lthumb 5.85444 8.92327
rfemur -40.1327 -0.955514 25.6298
rtibia 39.122
rfoot -17.491 1.20066
rtoes -13.4647
lfemur -31.0353 2.63643 -17.8428
ltibia 73.8571
lfoot 4.17388 -6.88045
ltoes -4.91304
